<svg xmlns="http://www.w3.org/2000/svg" viewBox="0 0 175.56 293.89"><defs><style>.cls-1{isolation:isolate;}.cls-2{fill:#606060;}.cls-3{fill:#cfe1ec;mix-blend-mode:multiply;}.cls-4{fill:#c79160;}.cls-5{fill:#a86c34;}.cls-6{fill:#ffd500;}.cls-7{fill:#fa0;}.cls-8{fill:#d72626;}.cls-9{fill:#707070;}.cls-10{fill:#fff;}.cls-11{fill:#231f20;}.cls-12{fill:#fb422d;}</style></defs><g class="cls-1"><g id="Layer_1" data-name="Layer 1"><path class="cls-2" d="M2681.26,767.07c.9-4.29,10-6.56,13.06-7l-.61-4.14c-1.51.23-14.87,2.4-16.54,10.29-1.05,5,2.86,10.53,11.91,16.8a28.3,28.3,0,0,0-5.5,2.14c-3.5,2-1.85,6.65-.61,5.89l13.19-8C2694,780.84,2680,773.13,2681.26,767.07Z" transform="translate(-2644.28 -561.85)"/><path class="cls-2" d="M2660.08,612.58s1.12-3.25.1-4.67c-1.73-2.41-7.07-1.9-9.56,2.49-1,1.71-.81,6.4.44,9.29-19.06,37.6,8.11,75.88,8.38,76.27l3.39-2.45c-.26-.37-25.84-36.5-8.14-71.73,2-.71,5.19-2.72,6.11-5C2662,613.92,2660.08,612.58,2660.08,612.58Z" transform="translate(-2644.28 -561.85)"/><path class="cls-2" d="M2817.4,738.4c-1-4.95-5.9-7.11-8.3-5.38-1.42,1-1.37,4.47-1.37,4.47s-2.23.68-2,3.79c.14,2,1.87,4.43,3.4,5.9-1,6-4.27,17.2-8.86,17.69a.93.93,0,0,1-.82-.33c-2.9-2.82-3.25-16.17-2.57-24.75l-4.17-.33c-.3,3.77-1.52,22.88,3.83,28.08a5.08,5.08,0,0,0,3.61,1.52,5.25,5.25,0,0,0,.56,0c8.59-.91,11.86-17.1,12.55-21.18C2815.7,745.88,2817.83,740.57,2817.4,738.4Z" transform="translate(-2644.28 -561.85)"/><path class="cls-2" d="M2743,769.16l-2.68,3.22c.06,0,5.81,4.94,4.57,9.73-2.11,8.1-22,10.69-22,10.69l5.94,14.25c.56,1.35,4.47-1.95,2.8-5.61a27.65,27.65,0,0,0-3.52-5.27c12.49-2.8,19.34-7.07,20.88-13C2750.82,775.78,2743.3,769.43,2743,769.16Z" transform="translate(-2644.28 -561.85)"/><ellipse class="cls-3" cx="69.31" cy="284.89" rx="54.15" ry="8.99"/><path class="cls-4" d="M2754.76,595.87c.21-.86,5.4-21.15,36.53-22.35l.29,7.75c-25.31,1-29.24,16.24-29.27,16.4Z" transform="translate(-2644.28 -561.85)"/><path class="cls-5" d="M2763.13,588.93c1.39,1.38,1.94,3.16,1.63,3.47s-1.35-1-2.74-2.33-2.59-2.35-2.28-2.66S2761.74,587.55,2763.13,588.93Z" transform="translate(-2644.28 -561.85)"/><path class="cls-5" d="M2767.08,585.21c1.06,1.65,1.22,3.5.85,3.74s-1.12-1.22-2.18-2.87-2-2.84-1.66-3.08S2766,583.57,2767.08,585.21Z" transform="translate(-2644.28 -561.85)"/><path class="cls-5" d="M2771.42,582.32c.82,1.78.71,3.63.31,3.82s-.93-1.37-1.75-3.15-1.61-3.1-1.21-3.29S2770.6,580.54,2771.42,582.32Z" transform="translate(-2644.28 -561.85)"/><path class="cls-5" d="M2776.17,580.19c.56,1.87.19,3.7-.23,3.82s-.73-1.48-1.29-3.36-1.16-3.29-.74-3.42S2775.61,578.31,2776.17,580.19Z" transform="translate(-2644.28 -561.85)"/><path class="cls-5" d="M2781.8,578.49c.09,2-.71,3.64-1.15,3.66s-.35-1.62-.43-3.57-.32-3.48.12-3.51S2781.71,576.54,2781.8,578.49Z" transform="translate(-2644.28 -561.85)"/><polygon class="cls-6" points="139.61 10.97 144.79 15.99 140.78 20.45 146.8 20.04 144 27.11 151.07 22.68 153.65 29.6 156.28 23.57 161.77 27.32 160.64 20.81 167.92 19.13 162.4 14.69 167.15 8.11 160.12 10.35 161.29 3.1 155.83 8.17 152.94 0 150.27 7.83 145.38 3.31 146.84 10.05 139.61 10.97 139.61 10.97"/><polygon class="cls-7" points="163.96 18.39 160.49 15.52 163.67 10.59 158.87 11.8 159.58 6.29 155.14 10.04 152.85 4.23 150.89 10.31 147.34 7 148.35 11.9 142.92 12.14 146.49 15.84 143.49 19.16 147.85 19.21 146.23 24.24 151.36 21.33 153.74 26.4 155.83 21.5 159.91 24.44 158.8 19.44 163.96 18.39"/><polygon class="cls-8" points="161.16 17.77 158.48 15.67 160.9 12.66 157.37 13.6 157.62 9.92 154.52 12.45 152.85 8.44 151.58 12.48 149 9.78 149.92 13.12 145.76 13.13 148.55 15.85 145.95 18.27 149.09 18.17 148.52 21.03 152.04 19.26 153.79 22.81 155.47 19.95 158 21.9 157.33 18.29 161.16 17.77"/><rect class="cls-2" x="2734.85" y="591.91" width="43.96" height="25.29" rx="8.52" transform="matrix(0.96, 0.28, -0.28, 0.96, -2369.77, -1300.31)"/><circle class="cls-9" cx="2733.17" cy="686.81" r="86.66" transform="translate(-1104.33 2678.03) rotate(-79.06)"/><path class="cls-10" d="M2704.23,617.64c2.35,3.34-3.17,8-10,12.82s-12.39,7.93-14.74,4.59,1.28-9.95,8.11-14.76S2701.88,614.3,2704.23,617.64Z" transform="translate(-2644.28 -561.85)"/><path class="cls-10" d="M2677,640.18c2.36,1.79,1.12,4.87-1.06,7.75s-4.49,4.5-6.85,2.71-2.51-5.58-.32-8.47S2674.67,638.4,2677,640.18Z" transform="translate(-2644.28 -561.85)"/><path class="cls-2" d="M2736.22,752.72a86.67,86.67,0,0,1-89.48-72.27,86.66,86.66,0,1,0,171.91-7.94A86.66,86.66,0,0,1,2736.22,752.72Z" transform="translate(-2644.28 -561.85)"/><path class="cls-10" d="M2743.28,590c-2.77.3-3.9,3-4,4.4s9.88-.12,10.18-1.61C2749.76,591.42,2746.05,589.65,2743.28,590Z" transform="translate(-2644.28 -561.85)"/><path class="cls-11" d="M2739.21,728.7c3.32,5.47-4.54,13.59-16.64,11.18s-15.41-13.49-11.06-16.71c2.49-1.84,6.68,1.67,13.78,3.09S2737.56,726,2739.21,728.7Z" transform="translate(-2644.28 -561.85)"/><path class="cls-12" d="M2713.61,733.36a17.64,17.64,0,0,0,9.2,4.7,18.86,18.86,0,0,0,11.07-.86C2727.56,725.76,2718.63,729.71,2713.61,733.36Z" transform="translate(-2644.28 -561.85)"/><circle class="cls-10" cx="2766.45" cy="721.08" r="10.15" transform="translate(-2001.95 2072.69) rotate(-56.62)"/><path class="cls-11" d="M2759.63,719.55a7,7,0,1,0,8.22-5.48A7,7,0,0,0,2759.63,719.55Z" transform="translate(-2644.28 -561.85)"/><path class="cls-10" d="M2767.28,716.15c.3,1-.92,1.81-2.37,2.28s-2.56.36-2.87-.59.62-2.09,2.07-2.56S2767,715.21,2767.28,716.15Z" transform="translate(-2644.28 -561.85)"/><path class="cls-10" d="M2769.9,725.12a1.43,1.43,0,1,1-1.69-.28A1.24,1.24,0,0,1,2769.9,725.12Z" transform="translate(-2644.28 -561.85)"/><path class="cls-10" d="M2679.6,703.75a10.15,10.15,0,1,0,11.94-8A10.15,10.15,0,0,0,2679.6,703.75Z" transform="translate(-2644.28 -561.85)"/><path class="cls-11" d="M2682.73,704.2a7,7,0,1,0,8.23-5.48A7,7,0,0,0,2682.73,704.2Z" transform="translate(-2644.28 -561.85)"/><path class="cls-10" d="M2690.73,700.65c.31,1-.92,1.81-2.37,2.27s-2.56.36-2.87-.58.62-2.1,2.07-2.56S2690.43,699.7,2690.73,700.65Z" transform="translate(-2644.28 -561.85)"/><path class="cls-10" d="M2693.35,709.61a1.43,1.43,0,0,1-2.42,1.27,1.21,1.21,0,0,1,.73-1.54A1.24,1.24,0,0,1,2693.35,709.61Z" transform="translate(-2644.28 -561.85)"/></g></g></svg>