<svg xmlns="http://www.w3.org/2000/svg" viewBox="0 0 260.31 271.97"><defs><style>.cls-1{isolation:isolate;}.cls-2{fill:#606060;}.cls-3{fill:#cfe1ec;mix-blend-mode:multiply;}.cls-4{fill:#c79160;}.cls-5{fill:#a86c34;}.cls-6{fill:#ffd500;}.cls-7{fill:#fa0;}.cls-8{fill:#d72626;}.cls-9{fill:#707070;}.cls-10{fill:#fff;}.cls-11{fill:#f22b2b;}</style></defs><g class="cls-1"><g id="Layer_1" data-name="Layer 1"><path class="cls-2" d="M2214,674.81a80.39,80.39,0,0,1-15,4c6.84-3,14.65-6.74,14.76-6.79a1.25,1.25,0,0,0,.59-1.67,1.26,1.26,0,0,0-1.68-.59c-.1,0-7.27,3.48-13.84,6.38,5.28-4.18,12-8.92,12.12-9a1.26,1.26,0,0,0-1.45-2.06c-.39.28-6.73,4.74-12,8.87a75.9,75.9,0,0,1,8.93-11.85,1.26,1.26,0,1,0-1.78-1.77c-4.21,4.22-8.7,11.22-11.3,15.53a36,36,0,0,1,1.92-11.23,1.25,1.25,0,1,0-2.36-.85,39.55,39.55,0,0,0-2,15.16c-23.75,21.18-29.91,31.32-30.17,31.75l3.6,2.13c.06-.1,6.17-10.15,29.86-31.21l.53,0c8.42,0,19.62-4.28,20.14-4.48a1.25,1.25,0,0,0-.9-2.34Z" transform="translate(-1955.42 -583.77)"/><path class="cls-2" d="M1956.22,677.15c.52.2,11.72,4.48,20.14,4.48l.53,0c23.55,20.94,29.8,31.12,29.86,31.22l3.6-2.14c-.26-.43-6.43-10.57-30.17-31.75a39.55,39.55,0,0,0-2-15.16,1.25,1.25,0,1,0-2.36.85,35.55,35.55,0,0,1,1.91,11.23c-2.59-4.31-7.09-11.31-11.29-15.53a1.26,1.26,0,1,0-1.78,1.77,75.9,75.9,0,0,1,8.93,11.85c-5.22-4.13-11.56-8.59-12-8.87a1.26,1.26,0,0,0-1.44,2.06c.1.07,6.84,4.81,12.11,9-6.56-2.9-13.74-6.33-13.84-6.38a1.25,1.25,0,0,0-1.08,2.26c.11,0,7.92,3.79,14.75,6.79a80.17,80.17,0,0,1-15-4,1.25,1.25,0,1,0-.9,2.34Z" transform="translate(-1955.42 -583.77)"/><path class="cls-2" d="M2039.05,776.51l-1.9-3.72a73.37,73.37,0,0,0-25.08,23.52,20.59,20.59,0,0,0-3.09-4.86c-2.75-2.94-8-.85-7,.19l10.92,10.92c.37.37.62-.33.77-1A70.9,70.9,0,0,1,2039.05,776.51Z" transform="translate(-1955.42 -583.77)"/><path class="cls-2" d="M2164.2,791a25.5,25.5,0,0,0-3.37,5,73.48,73.48,0,0,0-25.22-23.74L2133.7,776a70.62,70.62,0,0,1,25.3,25c.15.67.41,1.4.79,1l2.93-2.94h0c3-3,7.29-7.3,8-8C2171.74,790.1,2166.94,788.11,2164.2,791Z" transform="translate(-1955.42 -583.77)"/><ellipse class="cls-3" cx="129.7" cy="262.85" rx="54.88" ry="9.12"/><path class="cls-4" d="M2105.75,617.79c.2-.87,5.39-21.15,36.52-22.35l.3,7.75c-25.31,1-29.24,16.24-29.28,16.39Z" transform="translate(-1955.42 -583.77)"/><path class="cls-5" d="M2114.11,610.85c1.39,1.38,1.94,3.15,1.64,3.47s-1.36-1-2.74-2.34-2.6-2.34-2.29-2.66S2112.73,609.47,2114.11,610.85Z" transform="translate(-1955.42 -583.77)"/><path class="cls-5" d="M2118.07,607.13c1,1.64,1.21,3.5.84,3.74s-1.11-1.23-2.17-2.87-2-2.85-1.66-3.09S2117,605.49,2118.07,607.13Z" transform="translate(-1955.42 -583.77)"/><path class="cls-5" d="M2122.4,604.24c.82,1.77.71,3.63.31,3.81s-.93-1.36-1.75-3.14-1.61-3.1-1.21-3.29S2121.58,602.46,2122.4,604.24Z" transform="translate(-1955.42 -583.77)"/><path class="cls-5" d="M2127.15,602.11c.56,1.87.19,3.69-.22,3.82s-.74-1.48-1.3-3.36-1.15-3.3-.73-3.43S2126.59,600.23,2127.15,602.11Z" transform="translate(-1955.42 -583.77)"/><path class="cls-5" d="M2132.79,600.41c.08,2-.72,3.64-1.15,3.66s-.35-1.62-.44-3.58-.32-3.48.12-3.5S2132.7,598.46,2132.79,600.41Z" transform="translate(-1955.42 -583.77)"/><polygon class="cls-6" points="179.46 10.97 184.64 15.99 180.63 20.45 186.65 20.04 183.85 27.11 190.92 22.68 193.5 29.6 196.13 23.57 201.62 27.32 200.49 20.81 207.77 19.13 202.25 14.69 207 8.11 199.97 10.35 201.14 3.1 195.68 8.17 192.79 0 190.12 7.83 185.23 3.31 186.69 10.05 179.46 10.97 179.46 10.97"/><polygon class="cls-7" points="203.81 18.39 200.34 15.52 203.52 10.59 198.72 11.8 199.43 6.29 194.99 10.04 192.7 4.23 190.74 10.31 187.18 7 188.2 11.9 182.77 12.14 186.34 15.84 183.34 19.16 187.7 19.21 186.08 24.24 191.21 21.33 193.58 26.4 195.68 21.5 199.76 24.44 198.65 19.44 203.81 18.39"/><polygon class="cls-8" points="201.01 17.77 198.33 15.67 200.74 12.66 197.22 13.6 197.47 9.92 194.36 12.45 192.7 8.44 191.43 12.47 188.85 9.78 189.77 13.12 185.61 13.13 188.4 15.85 185.8 18.27 188.94 18.17 188.37 21.03 191.89 19.26 193.64 22.81 195.32 19.95 197.85 21.9 197.18 18.29 201.01 17.77"/><rect class="cls-2" x="2085.83" y="613.83" width="43.96" height="25.29" rx="8.52" transform="translate(-1700.13 -1141.98) rotate(16.05)"/><circle class="cls-9" cx="2084.16" cy="708.73" r="86.66" transform="translate(-1199.5 1880.46) rotate(-71.67)"/><path class="cls-10" d="M2055.21,639.55c2.36,3.35-3.17,8-10,12.83s-12.38,7.93-14.74,4.59,1.28-10,8.11-14.76S2052.86,636.21,2055.21,639.55Z" transform="translate(-1955.42 -583.77)"/><path class="cls-10" d="M2028,662.1c2.36,1.79,1.12,4.86-1.07,7.75s-4.48,4.49-6.84,2.7-2.51-5.57-.33-8.46S2025.65,660.31,2028,662.1Z" transform="translate(-1955.42 -583.77)"/><path class="cls-2" d="M2087.2,774.64a86.67,86.67,0,0,1-89.48-72.27,89.27,89.27,0,0,0-.14,10.36,86.67,86.67,0,0,0,173.15-8,89.13,89.13,0,0,0-1.1-10.3A86.66,86.66,0,0,1,2087.2,774.64Z" transform="translate(-1955.42 -583.77)"/><path class="cls-10" d="M2094.26,611.87c-2.77.29-3.9,3-4,4.39s9.89-.11,10.19-1.6C2100.75,613.34,2097,611.57,2094.26,611.87Z" transform="translate(-1955.42 -583.77)"/><path d="M2101,729.15c4.27,4.64.12,13.29-13.92,13.29s-17.49-9.35-13.91-13.29c2-2.26,6.77-1.13,13.91-1.13S2098.84,726.85,2101,729.15Z" transform="translate(-1955.42 -583.77)"/><path class="cls-11" d="M2076.17,738.27c2.47,1.61,6,2.71,10.87,2.71,5.4,0,9.33-1.28,11.89-3.13C2089.7,728.52,2081,733.66,2076.17,738.27Z" transform="translate(-1955.42 -583.77)"/><path d="M2141.34,721.82a74.17,74.17,0,0,0-12.89-1.12,65.82,65.82,0,0,0-14.29,1.43,2.93,2.93,0,0,0,1.39,5.69h0a60.81,60.81,0,0,1,12.9-1.26,67.38,67.38,0,0,1,11.86,1,2.93,2.93,0,0,0,1-5.77Z" transform="translate(-1955.42 -583.77)"/><path d="M2059.6,722.13h0a66.09,66.09,0,0,0-14.3-1.43,74.17,74.17,0,0,0-12.89,1.12,2.93,2.93,0,0,0,1,5.77,67.38,67.38,0,0,1,11.86-1,68.43,68.43,0,0,1,9.44.64c1.13.16,2,.32,2.61.44.3.06.52.1.66.14l.16,0h0a2.93,2.93,0,0,0,1.4-5.69Z" transform="translate(-1955.42 -583.77)"/></g></g></svg>