<svg xmlns="http://www.w3.org/2000/svg" viewBox="0 0 231.85 261.13"><defs><style>.cls-1{isolation:isolate;}.cls-2{fill:#cfe1ec;mix-blend-mode:multiply;}.cls-3{fill:#606060;}.cls-4{fill:#c79160;}.cls-5{fill:#a86c34;}.cls-6{fill:#ffd500;}.cls-7{fill:#fa0;}.cls-8{fill:#d72626;}.cls-9{fill:#707070;}.cls-10{fill:#fff;}.cls-11{fill:#231f20;}.cls-12{fill:#f22b2b;}</style></defs><g class="cls-1"><g id="Layer_1" data-name="Layer 1"><ellipse class="cls-2" cx="94.63" cy="252.14" rx="54.15" ry="8.99"/><path class="cls-3" d="M2525.9,707.91a80.29,80.29,0,0,1-12.85,8.7c5.47-5.07,11.62-11.17,11.7-11.25a1.26,1.26,0,1,0-1.77-1.78c-.08.08-5.71,5.67-11,10.57,3.61-5.69,8.41-12.37,8.48-12.47a1.25,1.25,0,0,0-2-1.46c-.28.39-4.8,6.68-8.37,12.29a76,76,0,0,1,4.54-14.12,1.25,1.25,0,0,0-2.26-1.09c-2.58,5.38-4.53,13.46-5.57,18.38a35.53,35.53,0,0,1-1.87-11.23,1.24,1.24,0,0,0-1.24-1.26h0a1.25,1.25,0,0,0-1.25,1.24,39.4,39.4,0,0,0,2.93,14.63c-15.86,13.45-40,16.24-40.21,16.27l.46,4.16c1.08-.12,26.73-3.07,43.58-18.21l-.24-.26c8.17-2.42,18.14-10.82,18.58-11.2a1.25,1.25,0,1,0-1.62-1.91Z" transform="translate(-2296.11 -594.6)"/><path class="cls-3" d="M2317.77,692.5l3.6-2.13c-.14-.23-13.32-23-8.13-44.34a39.09,39.09,0,0,0,13.84-5.5,1.25,1.25,0,0,0-1.38-2.09,35.47,35.47,0,0,1-10.45,4.54c3.56-3.54,9.28-9.57,12.38-14.67a1.25,1.25,0,1,0-2.14-1.3,76.49,76.49,0,0,1-9.38,11.5c2.77-6.06,5.58-13.28,5.76-13.73a1.26,1.26,0,0,0-2.34-.91c-.05.11-3,7.79-5.84,13.91,1.25-7.07,2.87-14.85,2.89-15a1.26,1.26,0,1,0-2.46-.51c0,.11-1.79,8.59-3.06,15.94a79.75,79.75,0,0,1,.29-15.52,1.25,1.25,0,0,0-1.09-1.4,1.28,1.28,0,0,0-1.4,1.08c-.07.57-1.64,13.15.64,21.32C2303,667.16,2317.16,691.47,2317.77,692.5Z" transform="translate(-2296.11 -594.6)"/><path class="cls-3" d="M2346.08,773.67c-5,3.25-8.12,8.62-9.41,16a49.76,49.76,0,0,0-7.83-3.38c-3.28-.83-5.12,3.74-3.92,4l15.31,3.27s.71-11.48,8.12-16.36,17.87-1.8,18-1.76l.62-2,.63-2C2367.09,771.27,2355.26,767.63,2346.08,773.67Z" transform="translate(-2296.11 -594.6)"/><path class="cls-3" d="M2305.93,756.71a28.83,28.83,0,0,0-3.41-5.94c-2.56-3.1-7.25-1-6.28.07l10.22,11.57s13.74-18.26,31.13-9.55l.94-1.87.95-1.87C2339.29,749,2321.44,740.28,2305.93,756.71Z" transform="translate(-2296.11 -594.6)"/><path class="cls-4" d="M2444.28,616.37c.42-.78,10.72-19,41.09-12l-1.73,7.56c-24.7-5.66-32.47,8-32.54,8.19Z" transform="translate(-2296.11 -594.6)"/><path class="cls-5" d="M2454.17,611.85c1,1.7,1,3.55.67,3.78s-1.06-1.28-2-3-1.89-2.94-1.51-3.16S2453.19,610.16,2454.17,611.85Z" transform="translate(-2296.11 -594.6)"/><path class="cls-5" d="M2459,609.29c.6,1.87.26,3.7-.15,3.83s-.76-1.47-1.35-3.33-1.22-3.28-.8-3.42S2458.36,607.43,2459,609.29Z" transform="translate(-2296.11 -594.6)"/><path class="cls-5" d="M2463.89,607.63c.33,1.93-.26,3.69-.69,3.77s-.55-1.57-.87-3.49-.75-3.42-.31-3.49S2463.57,605.7,2463.89,607.63Z" transform="translate(-2296.11 -594.6)"/><path class="cls-5" d="M2469,606.81c.06,2-.77,3.62-1.21,3.64s-.32-1.63-.37-3.58-.26-3.49.18-3.5S2469,604.86,2469,606.81Z" transform="translate(-2296.11 -594.6)"/><path class="cls-5" d="M2474.92,606.65c-.43,1.91-1.64,3.32-2.07,3.23s.09-1.66.51-3.56.61-3.45,1-3.36S2475.34,604.74,2474.92,606.65Z" transform="translate(-2296.11 -594.6)"/><polygon class="cls-6" points="182.31 7.12 185.99 13.3 180.95 16.57 186.88 17.74 182.33 23.84 190.31 21.41 191 28.76 195.11 23.63 199.43 28.68 200.04 22.1 207.5 22.38 203.34 16.65 209.64 11.53 202.27 11.86 205.29 5.17 198.69 8.64 198.04 0 193.41 6.86 189.88 1.22 189.52 8.11 182.31 7.12 182.31 7.12"/><polygon class="cls-7" points="203.87 20.63 201.27 16.95 205.63 13.02 200.68 12.94 202.8 7.8 197.54 10.26 196.84 4.06 193.36 9.41 190.79 5.3 190.5 10.29 185.19 9.1 187.67 13.61 183.91 16.04 188.11 17.22 185.23 21.65 190.95 20.18 191.91 25.69 195.22 21.51 198.39 25.42 198.62 20.3 203.87 20.63"/><polygon class="cls-8" points="201.33 19.3 199.3 16.57 202.41 14.29 198.76 14.28 199.96 10.8 196.31 12.42 195.74 8.12 193.47 11.69 191.68 8.41 191.7 11.88 187.68 10.8 189.66 14.15 186.52 15.81 189.58 16.54 188.28 19.14 192.14 18.36 192.91 22.24 195.27 19.91 197.21 22.46 197.5 18.8 201.33 19.3"/><rect class="cls-3" x="2422.03" y="612.65" width="43.96" height="25.29" rx="8.52" transform="translate(-1619.74 -1769.2) rotate(31.17)"/><circle class="cls-9" cx="2399.71" cy="698.53" r="86.66" transform="translate(-1886.47 1615.93) rotate(-53.46)"/><path class="cls-10" d="M2389.82,624.2c1.4,3.84-5.15,6.91-13,9.77s-14,4.43-15.43.59,3.83-9.28,11.68-12.13S2388.42,620.36,2389.82,624.2Z" transform="translate(-2296.11 -594.6)"/><path class="cls-10" d="M2357.68,638.87c1.82,2.35-.18,5-3,7.21s-5.5,3.16-7.31.82-1-6,1.9-8.26S2355.87,636.53,2357.68,638.87Z" transform="translate(-2296.11 -594.6)"/><path class="cls-3" d="M2385.46,763a86.68,86.68,0,0,1-67.53-93.1A86.66,86.66,0,1,0,2486,707,86.65,86.65,0,0,1,2385.46,763Z" transform="translate(-2296.11 -594.6)"/><path class="cls-10" d="M2434.74,607.66c-2.75-.44-4.55,1.89-5,3.2s9.57,2.47,10.25,1.12S2437.49,608.1,2434.74,607.66Z" transform="translate(-2296.11 -594.6)"/><path class="cls-11" d="M2393.81,734.13c2.25,5.89-4.8,12.39-17.85,7.21s-12.8-15.15-8-17.49c2.75-1.35,6.72,1.45,13.35,4.08S2392.69,731.21,2393.81,734.13Z" transform="translate(-2296.11 -594.6)"/><path class="cls-12" d="M2368.1,733.23c1.7,2.41,4.61,4.76,9.1,6.54,5,2,9.14,2.25,12.2,1.48C2384.27,729.17,2374.31,730.74,2368.1,733.23Z" transform="translate(-2296.11 -594.6)"/><path d="M2432.16,747.93a74.65,74.65,0,0,0-15.42-11.85c-.47-.28-.93-.55-1.38-.8a71.45,71.45,0,0,1,19.87-.91,2.93,2.93,0,0,0,.52-5.84h0c-17.6-1.56-29.24,3-29.52,3.14a2.93,2.93,0,0,0-.1,5.4h0a84.31,84.31,0,0,1,8,4.28A68.24,68.24,0,0,1,2427.93,752a2.93,2.93,0,1,0,4.23-4.05Z" transform="translate(-2296.11 -594.6)"/><path d="M2340.48,690.66a2.93,2.93,0,1,0-3.62,4.6h0a72.21,72.21,0,0,1,13.69,14.12,2.14,2.14,0,0,1,.13.19c-.5-.13-1-.25-1.56-.37a74.37,74.37,0,0,0-19.33-2,2.93,2.93,0,1,0,.29,5.85,69,69,0,0,1,17.76,1.83c2.5.56,4.6,1.15,6.07,1.58l1.69.53.43.15.11,0h0a2.92,2.92,0,0,0,3.62-4C2359.66,712.94,2354.35,701.61,2340.48,690.66Z" transform="translate(-2296.11 -594.6)"/></g></g></svg>